<?xml version="1.0" encoding="utf-8"?>
<!-- Generator: Adobe Illustrator 16.0.0, SVG Export Plug-In . SVG Version: 6.00 Build 0)  -->
<!DOCTYPE svg PUBLIC "-//W3C//DTD SVG 1.1//EN" "http://www.w3.org/Graphics/SVG/1.1/DTD/svg11.dtd">
<svg version="1.1" id="Layer_1" xmlns="http://www.w3.org/2000/svg" xmlns:xlink="http://www.w3.org/1999/xlink" x="0px" y="0px"
	 width="100px" height="100px" viewBox="0 0 100 100" enable-background="new 0 0 100 100" xml:space="preserve">
<g id="icon">
	<g>
		<polygon fill="#FFFFFF" points="97.85,97.117 88.438,97.117 88.438,90.059 90.791,90.059 90.791,87.706 97.85,87.706 		"/>
	</g>
	<g>
		<path fill="#FFFFFF" d="M77.515,97.117H66.592v-7.059h10.923V97.117z M55.668,97.117H44.745v-7.059h10.923V97.117z M33.821,97.117
			H22.898v-7.059h10.923V97.117z"/>
	</g>
	<g>
		<polygon fill="#FFFFFF" points="11.975,97.117 2.563,97.117 2.563,87.706 9.622,87.706 9.622,90.059 11.975,90.059 		"/>
	</g>
	<g>
		<path fill="#FFFFFF" d="M9.622,76.874H2.563V66.042h7.059V76.874z M9.622,55.21H2.563V44.378h7.059V55.21z M9.622,33.546H2.563
			V22.714h7.059V33.546z"/>
	</g>
	<g>
		<polygon fill="#FFFFFF" points="9.622,11.882 2.563,11.882 2.563,2.471 11.975,2.471 11.975,9.529 9.622,9.529 		"/>
	</g>
	<g>
		<path fill="#FFFFFF" d="M77.515,9.529H66.592V2.471h10.923V9.529z M55.668,9.529H44.745V2.471h10.923V9.529z M33.822,9.529H22.898
			V2.471h10.923V9.529z"/>
	</g>
	<g>
		<polygon fill="#FFFFFF" points="97.85,11.882 90.791,11.882 90.791,9.529 88.438,9.529 88.438,2.471 97.85,2.471 		"/>
	</g>
	<g>
		<path fill="#FFFFFF" d="M97.85,76.874h-7.059V66.042h7.059V76.874z M97.85,55.21h-7.059V44.378h7.059V55.21z M97.85,33.546h-7.059
			V22.714h7.059V33.546z"/>
	</g>
</g>
</svg>
