<?xml version="1.0" encoding="UTF-8" standalone="no"?>
<!-- Created with Inkscape (http://www.inkscape.org/) -->

<svg
   xmlns:dc="http://purl.org/dc/elements/1.1/"
   xmlns:cc="http://creativecommons.org/ns#"
   xmlns:rdf="http://www.w3.org/1999/02/22-rdf-syntax-ns#"
   xmlns:svg="http://www.w3.org/2000/svg"
   xmlns="http://www.w3.org/2000/svg"
   xmlns:sodipodi="http://sodipodi.sourceforge.net/DTD/sodipodi-0.dtd"
   xmlns:inkscape="http://www.inkscape.org/namespaces/inkscape"
   width="100"
   height="100"
   id="svg3989"
   version="1.1"
   inkscape:version="0.48.5 r10040"
   sodipodi:docname="nearby.svg">
  <defs
     id="defs3991">
    <clipPath
       clipPathUnits="userSpaceOnUse"
       id="clipPath3574">
      <path
         inkscape:connector-curvature="0"
         d="m 0,2188 8196,0 L 8196,0 0,0 0,2188 z"
         id="path3576" />
    </clipPath>
    <clipPath
       clipPathUnits="userSpaceOnUse"
       id="clipPath3610">
      <path
         inkscape:connector-curvature="0"
         d="m 2607.37,168.265 539.88,0 0,-164.00035 -539.88,0 0,164.00035 z"
         id="path3612" />
    </clipPath>
  </defs>
  <sodipodi:namedview
     id="base"
     pagecolor="#ffffff"
     bordercolor="#666666"
     borderopacity="1.0"
     inkscape:pageopacity="0.0"
     inkscape:pageshadow="2"
     inkscape:zoom="0.64"
     inkscape:cx="70.80123"
     inkscape:cy="265.97746"
     inkscape:document-units="px"
     inkscape:current-layer="g3572"
     showgrid="false"
     inkscape:window-width="811"
     inkscape:window-height="635"
     inkscape:window-x="120"
     inkscape:window-y="14"
     inkscape:window-maximized="0" />
  <metadata
     id="metadata3994">
    <rdf:RDF>
      <cc:Work
         rdf:about="">
        <dc:format>image/svg+xml</dc:format>
        <dc:type
           rdf:resource="http://purl.org/dc/dcmitype/StillImage" />
        <dc:title></dc:title>
      </cc:Work>
    </rdf:RDF>
  </metadata>
  <g
     inkscape:label="Layer 1"
     inkscape:groupmode="layer"
     id="layer1"
     transform="translate(0,-952.36218)">
    <g
       id="g3572"
       clip-path="url(#clipPath3574)"
       transform="matrix(1.25,0,0,-1.25,-3623.0887,1054.7911)">
      <g
         id="g3606"
         transform="matrix(0.15722143,0,0,0.95426829,2486.1864,-78.554954)">
        <g
           id="g3608" />
        <g
           id="g3614">
          <g
             clip-path="url(#clipPath3610)"
             id="g3616"
             style="opacity:0.89999402">
            <path
               d="m 3147.253,4.265 -539.882,0 0,164 539.882,0 0,-164 z"
               style="fill:#231f20;fill-opacity:0;fill-rule:nonzero;stroke:none"
               id="path3618"
               inkscape:connector-curvature="0" />
          </g>
        </g>
      </g>
      <g
         id="g3620"
         transform="translate(3105.1436,94.309577)" />
      <g
         id="g3624"
         transform="translate(2963.6168,54.153277)">
        <path
           id="icon"
           style="fill:#ffffff;fill-opacity:1;fill-rule:evenodd;stroke:none"
           d="M -48.75,-16.25 C -34.942,-9.877 -21.135,-3.504 -7.0980003,2.9749999 -13.575,-11.059 -19.948,-24.867 -26.321,-38.675 c -0.05,0.007 -0.1,0.014 -0.151,0.021 -0.012,0.269 -0.034,0.54 -0.035,0.809 -0.002,6.833 -0.012,13.667 0.014,20.501 0.003,0.715 -0.177,0.928 -0.912,0.924 -6.834,-0.027 -13.667,-0.016 -20.501,-0.016 l -0.816,0 c -0.009,0.062 -0.019,0.124 -0.028,0.186 m 57.7767997,1.4063 c 0.022,18.6679999 -15.156,33.889 -33.8499997,33.943 -18.688,0.054 -33.96,-15.1770001 -33.982,-33.888 -0.022,-18.67 15.156,-33.891 33.85,-33.945 18.6879997,-0.053 33.9599997,15.177 33.9819997,33.89 m -34.8619997,37.253 1.892,0 c 1.617,-0.168 3.246,-0.254 4.847,-0.518 8.617,-1.422 15.9129997,-5.337 21.7769997,-11.815 5.068,-5.5970001 8.1500003,-12.16 9.1980003,-19.652 0.199,-1.424 0.308,-2.863 0.458,-4.295 l 0,-1.893 c -0.168,-1.615 -0.254,-3.243 -0.517,-4.843 -1.41,-8.559 -5.2860003,-15.821 -11.69500031,-21.673 -5.59799999,-5.109 -12.17299969,-8.224 -19.69099969,-9.293 -1.452,-0.207 -2.917,-0.316 -4.377,-0.47 l -1.892,0 c -0.284,0.041 -0.568,0.082 -0.852,0.122 -2.41,0.347 -4.868,0.499 -7.223,1.072 -18.592,4.532 -30.753,22.925 -27.69,41.837 1.392,8.58899993 5.319,15.8609999 11.761,21.715 5.607,5.096 12.188,8.195 19.706,9.247 1.427,0.199 2.865,0.308 4.298,0.459"
           inkscape:connector-curvature="0" />
      </g>
    </g>
  </g>
</svg>
