<?xml version="1.0" encoding="utf-8"?>
<!-- Generator: Adobe Illustrator 16.0.0, SVG Export Plug-In . SVG Version: 6.00 Build 0)  -->
<!DOCTYPE svg PUBLIC "-//W3C//DTD SVG 1.1//EN" "http://www.w3.org/Graphics/SVG/1.1/DTD/svg11.dtd">
<svg version="1.1" id="Layer_1" xmlns="http://www.w3.org/2000/svg" xmlns:xlink="http://www.w3.org/1999/xlink" x="0px" y="0px"
	 width="100px" height="100px" viewBox="0 0 100 100" enable-background="new 0 0 100 100" xml:space="preserve">
<g>
	<path fill-rule="evenodd" clip-rule="evenodd" fill="#666666" stroke="#666666" stroke-miterlimit="10" d="M42.482,27.002
		c0,5.117-4.152,9.267-9.27,9.267c-5.121,0-9.27-4.15-9.27-9.267c0-5.122,4.149-9.271,9.27-9.271
		C38.33,17.731,42.482,21.88,42.482,27.002z"/>
	
		<line fill="#666666" stroke="#666666" stroke-width="6.4756" stroke-miterlimit="10" x1="33.212" y1="27.002" x2="54.701" y2="67.624"/>
	
		<circle fill-rule="evenodd" clip-rule="evenodd" fill="#666666" stroke="#666666" stroke-miterlimit="10" cx="54.7" cy="67.624" r="9.269"/>
	
		<circle fill-rule="evenodd" clip-rule="evenodd" fill="#666666" stroke="#666666" stroke-miterlimit="10" cx="14.229" cy="67.624" r="9.27"/>
	<path fill-rule="evenodd" clip-rule="evenodd" fill="#666666" stroke="#666666" stroke-miterlimit="10" d="M96.078,27.002
		c0,5.117-4.149,9.267-9.269,9.267s-9.271-4.15-9.271-9.267c0-5.122,4.152-9.271,9.271-9.271S96.078,21.88,96.078,27.002z"/>
	
		<line fill="#666666" stroke="#666666" stroke-width="6.4756" stroke-miterlimit="10" x1="83.3" y1="30.251" x2="56.175" y2="70.872"/>
	
		<line fill="#666666" stroke="#666666" stroke-width="6.4756" stroke-miterlimit="10" x1="33.907" y1="25.013" x2="13.979" y2="69.611"/>
</g>
</svg>
