<?xml version="1.0" encoding="utf-8"?>
<!-- Generator: Adobe Illustrator 16.0.4, SVG Export Plug-In . SVG Version: 6.00 Build 0)  -->
<!DOCTYPE svg PUBLIC "-//W3C//DTD SVG 1.1//EN" "http://www.w3.org/Graphics/SVG/1.1/DTD/svg11.dtd">
<svg version="1.1" id="Layer_1" xmlns="http://www.w3.org/2000/svg" xmlns:xlink="http://www.w3.org/1999/xlink" x="0" y="0"
	 width="871.667" height="100" viewBox="0 0 871.667 100" enable-background="new 0 0 871.667 100" xml:space="preserve">
<text id="title" transform="matrix(1 0 0 1 92.96 65.5938)" fill="#F1F2F2" font-family="'Lato-Regular'" font-size="67.4146">Graphs</text>
<g id="em2Rkj_1_">
	<g>
		<path fill-rule="evenodd" clip-rule="evenodd" fill="#FFFFFF" d="M71.55,64.771c0.963,0.757,0.951,0.997-0.009,1.749
			c-3.318,0.881-5.351,1.079-9.493,1.674c-2.26,0-4.441,0-6.624,0c-11.063-0.001-22.125-0.001-33.188-0.001
			c-5.451,0-10.902,0.003-16.353-0.004c-1.857-0.002-2.857-1.044-2.856-2.892c0.004-12.61-0.002-25.224-0.002-37.836
			c0-4.008,0.006-8.016,0.009-12.024c0.001-0.341,0-0.682,0-1.126c0.01-0.058,0.443-0.047,0.01-0.058
			c-0.188-0.005,0.991-6.975,1.803-9.63c0.246-0.814,1.26-0.854,1.463-0.005c0.699,2.926,1.559,7.29,1.85,9.703
			c0,16.267,0,32.471,0,48.766c17.956,0,35.853,0,53.886,0"/>
		<path fill-rule="evenodd" clip-rule="evenodd" fill="#FFFFFF" d="M59.405,37.519c0,7.717,0,15.294,0,22.929
			c-16.201,0-32.374,0-48.682,0c0-0.691,0-1.402,0.002-2.109c0.001-2.483-0.007-4.967,0.022-7.452
			c0.003-0.311,0.116-0.708,0.326-0.914c2.398-2.359,4.825-4.692,7.325-7.109c3.406,4.17,6.792,8.313,10.247,12.543
			c0.222-0.261,0.412-0.467,0.585-0.687c2.548-3.228,5.112-6.443,7.627-9.697c0.397-0.514,0.754-0.615,1.339-0.463
			c2.581,0.671,5.164,1.33,7.759,1.938c0.376,0.087,0.912-0.013,1.227-0.233c3.77-2.668,7.512-5.377,11.262-8.071
			C58.723,37.991,59.006,37.797,59.405,37.519z"/>
		<path fill-rule="evenodd" clip-rule="evenodd" fill="#FFFFFF" d="M59.434,19.539c0,1.911,0,3.636,0,5.36
			c-0.002,2.432,0.013,4.863-0.031,7.294c-0.005,0.33-0.233,0.765-0.499,0.964c-3.892,2.913-7.812,5.788-11.71,8.692
			c-0.429,0.32-0.812,0.381-1.324,0.26c-2.83-0.663-5.674-1.27-8.502-1.944c-0.736-0.177-1.186-0.055-1.672,0.585
			c-2.121,2.782-4.312,5.513-6.479,8.261c-0.161,0.206-0.337,0.398-0.565,0.665c-3.419-4.096-6.797-8.143-10.249-12.279
			c-2.542,2.565-5.01,5.059-7.479,7.551c-0.068-0.031-0.136-0.062-0.203-0.092c0-0.947,0-1.896,0-2.843
			c0.003-3.047-0.001-6.093,0.021-9.139c0.002-0.288,0.098-0.658,0.29-0.853c2.362-2.396,4.752-4.771,7.136-7.146
			c0.053-0.054,0.133-0.078,0.282-0.162c3.377,4.218,6.758,8.438,10.185,12.717c0.208-0.242,0.368-0.408,0.506-0.592
			c2.262-3.012,4.534-6.016,6.771-9.046c0.342-0.465,0.662-0.563,1.194-0.427c2.943,0.758,5.896,1.473,8.837,2.239
			c0.494,0.128,0.827,0.07,1.229-0.253c3.697-2.99,7.413-5.956,11.125-8.928C58.622,20.163,58.955,19.911,59.434,19.539z"/>
	</g>
</g>
</svg>
