<?xml version="1.0" encoding="UTF-8" standalone="no"?>
<!-- Created with Inkscape (http://www.inkscape.org/) -->

<svg
   xmlns:dc="http://purl.org/dc/elements/1.1/"
   xmlns:cc="http://creativecommons.org/ns#"
   xmlns:rdf="http://www.w3.org/1999/02/22-rdf-syntax-ns#"
   xmlns:svg="http://www.w3.org/2000/svg"
   xmlns="http://www.w3.org/2000/svg"
   xmlns:sodipodi="http://sodipodi.sourceforge.net/DTD/sodipodi-0.dtd"
   xmlns:inkscape="http://www.inkscape.org/namespaces/inkscape"
   width="100"
   height="20"
   id="svg3953"
   version="1.1"
   inkscape:version="0.48.4 r9939"
   sodipodi:docname="New document 13">
  <defs
     id="defs3955">
    <clipPath
       clipPathUnits="userSpaceOnUse"
       id="clipPath3101">
      <path
         inkscape:connector-curvature="0"
         d="m 0,2188 8196,0 L 8196,0 0,0 0,2188 z"
         id="path3103" />
    </clipPath>
  </defs>
  <sodipodi:namedview
     id="base"
     pagecolor="#ffffff"
     bordercolor="#666666"
     borderopacity="1.0"
     inkscape:pageopacity="0.0"
     inkscape:pageshadow="2"
     inkscape:zoom="3.959798"
     inkscape:cx="117.44761"
     inkscape:cy="6.1750938"
     inkscape:document-units="px"
     inkscape:current-layer="layer1"
     showgrid="false"
     inkscape:window-width="1366"
     inkscape:window-height="744"
     inkscape:window-x="0"
     inkscape:window-y="24"
     inkscape:window-maximized="1" />
  <metadata
     id="metadata3958">
    <rdf:RDF>
      <cc:Work
         rdf:about="">
        <dc:format>image/svg+xml</dc:format>
        <dc:type
           rdf:resource="http://purl.org/dc/dcmitype/StillImage" />
        <dc:title></dc:title>
      </cc:Work>
    </rdf:RDF>
  </metadata>
  <g
     inkscape:label="Layer 1"
     inkscape:groupmode="layer"
     id="layer1"
     transform="translate(0,-1032.3622)">
    <text
       style="font-size:3.02085519px"
       y="1050.7031"
       x="26.191532"
       id="text3093">
      <tspan
         style="font-size:20.97291565px;font-variant:normal;font-weight:normal;font-stretch:normal;writing-mode:lr-tb;fill:#f4f4f4;fill-opacity:1;fill-rule:nonzero;stroke:none;font-family:Lato;-inkscape-font-specification:Lato-Regular"
         x="26.191532 36.950634 49.681194 62.768291 74.869675 87.998718"
         y="1050.7031"
         sodipodi:role="line"
         id="title">LAYERS</tspan>
    </text>
    <g
       transform="matrix(0.25173793,0,0,-0.25173793,-17.485124,1559.2612)"
       id="g3097">
      <g
         id="g3099"
         clip-path="url(#clipPath3101)">
        <g
           id="g3105"
           transform="translate(71.3335,2030.4746)">
          <path
             inkscape:connector-curvature="0"
             d="m 0,0 c 12.757,-5.897 24.549,-11.371 36.372,-16.774 1.005,-0.459 2.453,-0.957 3.314,-0.576 12.541,5.56 25.016,11.266 38.143,17.225 C 70.977,6.374 64.983,6.671 59.08,2.546 45.655,-6.836 32.485,-6.89 19.029,2.477 13.145,6.573 7.1,6.465 0,0 M 77.669,21.001 C 68.177,27.724 67.54,28.623 60.28,23.904 45.77,14.471 31.953,13.984 17.832,24.048 17.36,24.384 16.816,24.62 16.298,24.887 10.296,27.993 5.564,26.067 0.458,20.883 12.845,15.141 24.396,9.718 36.031,4.483 37.462,3.839 39.62,3.594 40.98,4.198 53.042,9.562 65,15.16 77.669,21.001 M -1.104,42.76 C 12.823,36.289 24.398,30.869 36.028,25.568 37.265,25.004 39.082,24.543 40.188,25.034 52.503,30.49 64.731,36.143 79.117,42.718 65.339,49.168 54.136,54.595 42.744,59.587 40.603,60.525 37.349,60.536 35.211,59.6 23.815,54.608 12.608,49.181 -1.104,42.76"
             style="fill:#f4f4f4;fill-opacity:1;fill-rule:nonzero;stroke:none"
             id="path3107" />
        </g>
        <g
           id="g3109"
           transform="translate(134.0972,2073.2173)">
          <path
             inkscape:connector-curvature="0"
             d="M 0,0 C -18.238,13.465 -33.192,13.265 -47.155,-0.118 -31.821,-13.523 -15.998,-12.905 0,0 m -63.868,0.017 c 13.713,6.421 24.919,11.849 36.316,16.84 2.137,0.936 5.391,0.926 7.532,-0.013 C -8.627,11.853 2.575,6.426 16.353,-0.025 1.967,-6.6 -10.261,-12.253 -22.576,-17.709 c -1.106,-0.49 -2.923,-0.03 -4.159,0.534 -11.63,5.301 -23.206,10.721 -37.133,17.192"
             style="fill:#f4f4f4;fill-opacity:1;fill-rule:evenodd;stroke:none"
             id="path3111" />
        </g>
        <g
           id="g3113"
           transform="translate(149.0024,2051.4761)">
          <path
             inkscape:connector-curvature="0"
             d="m 0,0 c -12.668,-5.842 -24.626,-11.439 -36.688,-16.803 -1.361,-0.605 -3.519,-0.359 -4.95,0.284 -11.635,5.235 -23.186,10.658 -35.572,16.4 5.105,5.185 9.837,7.11 15.839,4.005 0.518,-0.268 1.062,-0.504 1.534,-0.84 C -45.716,-7.017 -31.899,-6.53 -17.389,2.902 -10.129,7.622 -9.492,6.722 0,0"
             style="fill:#f4f4f4;fill-opacity:1;fill-rule:evenodd;stroke:none"
             id="path3115" />
        </g>
        <g
           id="g3117"
           transform="translate(71.3335,2030.4746)">
          <path
             inkscape:connector-curvature="0"
             d="M 0,0 C 7.1,6.465 13.145,6.573 19.029,2.477 32.485,-6.89 45.655,-6.836 59.08,2.546 64.983,6.671 70.977,6.374 77.829,-0.125 64.702,-6.084 52.227,-11.79 39.686,-17.35 c -0.861,-0.381 -2.309,0.117 -3.314,0.576 C 24.549,-11.371 12.757,-5.897 0,0"
             style="fill:#f4f4f4;fill-opacity:1;fill-rule:evenodd;stroke:none"
             id="path3119" />
        </g>
        <g
           id="g3121"
           transform="translate(134.0972,2073.2173)">
          <path
             inkscape:connector-curvature="0"
             d="M 0,0 C -15.998,-12.905 -31.821,-13.523 -47.155,-0.118 -33.192,13.265 -18.238,13.465 0,0"
             style="fill:#ffffff;fill-opacity:1;fill-rule:evenodd;stroke:none"
             id="path3123" />
        </g>
      </g>
    </g>
  </g>
</svg>
