<?xml version="1.0" encoding="utf-8"?>
<!-- Generator: Adobe Illustrator 16.0.4, SVG Export Plug-In . SVG Version: 6.00 Build 0)  -->
<!DOCTYPE svg PUBLIC "-//W3C//DTD SVG 1.1//EN" "http://www.w3.org/Graphics/SVG/1.1/DTD/svg11.dtd">
<svg version="1.1" id="Layer_1" xmlns="http://www.w3.org/2000/svg" xmlns:xlink="http://www.w3.org/1999/xlink" x="0px" y="0px"
	 width="100" height="100" viewBox="0 0 100 100" enable-background="new 0 0 100 100" xml:space="preserve">
<circle id="background" fill="#BA4426" cx="50.101" cy="49.822" r="48.306"/>
<g id="HtUql9_1_">
	<g>
		<path fill-rule="evenodd" clip-rule="evenodd" fill="#F1F2F2" d="M20.371,50.262c1.564-4.003,1.142-5.723-2.797-7.839
			c-1.86-0.998-3.853-1.771-6.094-2.784c0.265-1.348,0.535-2.621,0.763-3.901c1.096-6.15,2.836-11.529,10.731-12.789
			c2.045-0.327,3.362,0.447,5.015,0.608c1.397,0.136,2.76,0.87,4.139,0.874c16.724,0.062,33.447,0.059,50.172,0.003
			c1.46-0.005,2.919-0.487,4.673-0.8c0.463,0.563,1.772,1.431,1.745,2.258c-0.121,3.698-0.501,7.404-1.039,11.073
			c-0.262,1.797-1.668,2.487-3.66,2.438c-4.594-0.113-9.193-0.035-13.789-0.031c-4.527,0.003-4.521,0.005-5.339,4.303
			c-0.843,4.439-2.997,7.964-7.793,9.264c-4.22,1.145-8.555,1.238-12.648-0.424c-2.062-0.839-3.321-0.201-4.026,1.373
			c-1.258,2.812-2.431,5.693-3.22,8.649c-1.243,4.66-2.139,9.405-3.21,14.24c-7.578-0.935-14.797-1.825-22.176-2.735
			c0.133-0.793,0.14-1.258,0.293-1.672C14.843,64.992,17.508,57.592,20.371,50.262z M47.444,51.3
			c3.151,0.22,6.403,0.017,9.522-0.497c2.96-0.487,4.485-2.862,5.385-5.43c0.83-2.368-0.254-4.528-2.411-5.32
			c-3.322-1.222-5.958-0.625-6.788,2.072c-0.707,2.301-0.557,4.84-0.787,7.287c-3.213-1.83-4.139-4.332-3.219-9.422
			c-3.51-0.242-6.28,1.832-6.687,5.01C42.028,48.371,43.889,51.053,47.444,51.3z"/>
	</g>
</g>
</svg>
