<?xml version="1.0" encoding="utf-8"?>
<!-- Generator: Adobe Illustrator 16.0.4, SVG Export Plug-In . SVG Version: 6.00 Build 0)  -->
<!DOCTYPE svg PUBLIC "-//W3C//DTD SVG 1.1//EN" "http://www.w3.org/Graphics/SVG/1.1/DTD/svg11.dtd">
<svg version="1.1" id="Layer_1" xmlns="http://www.w3.org/2000/svg" xmlns:xlink="http://www.w3.org/1999/xlink" x="0px" y="0px"
	 width="100" height="100" viewBox="0 0 100 100" enable-background="new 0 0 100 100" xml:space="preserve">
<g>
	<g id="jAQfok_5_">
		<g>
			<g>
				<path id ="background" fill-rule="evenodd" clip-rule="evenodd" stroke="#FFFFFF" stroke-width="3" stroke-miterlimit="10" d="M98.25,85.877
					c0,6.412-5.196,11.609-11.609,11.609H13.207c-6.412,0-11.609-5.197-11.609-11.609V12.443c0-6.412,5.198-11.609,11.609-11.609
					h73.434c6.413,0,11.609,5.197,11.609,11.609V8Å5.877z"/>
			</g>
		</g>
	</g>
	<g id="_x32_CbGdb_1_">
		<g>
			<path fill-rule="evenodd" clip-rule="evenodd" fill="#FFFFFF" d="M86.789,15.8c-1.601,1.895-3.203,3.791-4.805,5.687
				c-2.794,3.306-5.589,6.611-8.384,9.917c-2.777,3.287-5.558,6.572-8.336,9.857c-2.794,3.306-5.59,6.611-8.385,9.917
				c-1.034,1.223-2.07,2.445-3.098,3.675c-0.062,0.071-0.103,0.187-0.103,0.281c-0.006,8.906-0.006,17.81-0.006,26.715
				c0,0.061,0.008,0.122,0.01,0.203c0.093,0,0.172,0,0.251,0c5.586,0,11.174-0.002,16.76,0c2.141,0,3.935-0.717,4.489,1.331
				c0.703,2.619-1.064,3.478-3.753,3.865c-0.267,0.038-0.537,0.06-0.806,0.061c-14.361,0.002-28.718,0.002-43.077,0.002
				c-2.211,0-4.018,0.465-4.568-1.616c-0.683-2.582,1.06-3.168,3.686-3.571c0.292-0.043,0.588-0.069,0.882-0.069
				c5.562-0.003,11.124-0.002,16.684-0.002c0.081,0,0.161,0,0.265,0c0-0.085,0-0.151,0-0.219c0-8.893,0-17.784-0.006-26.674
				c0-0.115-0.051-0.248-0.123-0.334c-2.438-2.892-4.879-5.78-7.322-8.668c-2.584-3.056-5.167-6.111-7.751-9.167
				c-2.653-3.137-5.307-6.275-7.959-9.413c-2.713-3.209-5.427-6.418-8.141-9.628c-0.568-0.671-1.134-1.344-1.704-2.015
				c-0.031-0.037-0.072-0.064-0.109-0.096c0.006-0.012,0.013-0.036,0.018-0.036C11.45,15.799,11.5,15.8,11.551,15.8
				C36.629,15.8,61.709,15.8,86.789,15.8z"/>
		</g>
	</g>
</g>
</svg>
