<?xml version="1.0" encoding="utf-8"?>
<!-- Generator: Adobe Illustrator 16.0.0, SVG Export Plug-In . SVG Version: 6.00 Build 0)  -->
<!DOCTYPE svg PUBLIC "-//W3C//DTD SVG 1.1//EN" "http://www.w3.org/Graphics/SVG/1.1/DTD/svg11.dtd">
<svg version="1.1" id="Capa_1" xmlns="http://www.w3.org/2000/svg" xmlns:xlink="http://www.w3.org/1999/xlink" x="0px" y="0px"
	 width="27.691" height="51.787" viewBox="0 0 27.691 51.787" enable-background="new 0 0 27.691 51.787" xml:space="preserve">
<g>
	<path d="M13.845,0C6.199,0,0,6.198,0,13.845c0,1.494,0.244,2.929,0.68,4.274c0.981,3.461,12.292,33.668,12.292,33.668
		s12.014-27.703,13.83-33.096c0.565-1.511,0.891-3.14,0.891-4.848C27.691,6.199,21.492,0,13.845,0z M13.845,24.761
		c-6,0-10.865-4.867-10.865-10.865c0-6.003,4.865-10.868,10.865-10.868c6.003,0,10.866,4.865,10.866,10.868
		C24.711,19.894,19.848,24.761,13.845,24.761z"/>
</g>
<path id="path3175" fill="#293D9B" d="M18.29,18.007c0.501,0.006,0.901-0.383,0.909-0.886
	c0.007-0.523-0.355-0.908-0.867-0.918c-0.528-0.01-0.935,0.375-0.938,0.894C17.393,17.59,17.797,18.001,18.29,18.007 M9.365,18.007
	c0.492,0.014,0.916-0.382,0.932-0.872c0.016-0.507-0.359-0.913-0.86-0.932c-0.538-0.02-0.935,0.352-0.944,0.88
	C8.486,17.591,8.865,17.993,9.365,18.007 M13.865,7.458c-0.872,0-1.743,0.005-2.614-0.003c-0.266-0.002-0.446,0.084-0.461,0.363
	c-0.016,0.296,0.168,0.433,0.443,0.433c1.742,0.004,3.486,0.004,5.229,0.001c0.278-0.001,0.458-0.14,0.442-0.435
	c-0.015-0.278-0.197-0.365-0.463-0.362C15.582,7.463,14.723,7.458,13.865,7.458 M13.853,13.935c1.545,0,3.09,0.001,4.634,0
	c0.593-0.001,0.769-0.168,0.694-0.733c-0.152-1.183-0.323-2.363-0.508-3.542c-0.078-0.5-0.254-0.629-0.76-0.63
	c-2.715-0.003-5.43-0.003-8.146,0C9.276,9.03,9.094,9.176,9.018,9.672c-0.182,1.18-0.353,2.36-0.508,3.543
	c-0.07,0.536,0.113,0.717,0.673,0.718C10.739,13.937,12.296,13.935,13.853,13.935 M8.435,20.092H7.381
	c-0.007-0.152-0.019-0.285-0.019-0.416c-0.001-1.993-0.039-3.987,0.016-5.978c0.028-1.027,0.217-2.049,0.342-3.073
	c0.078-0.641,0.185-1.279,0.255-1.922c0.07-0.633,0.388-1.083,0.93-1.399c0.832-0.485,1.758-0.67,2.683-0.86
	c2.111-0.432,4.179-0.21,6.216,0.43c0.307,0.095,0.603,0.23,0.89,0.377c0.605,0.31,0.953,0.795,1.034,1.491
	c0.179,1.505,0.481,3.002,0.559,4.512c0.103,2,0.037,4.008,0.045,6.012c0.001,0.26,0,0.521,0,0.814h-1.074
	c0,0.352,0.004,0.669,0,0.986c-0.009,0.628-0.367,1.028-0.93,1.042c-0.58,0.014-0.967-0.387-0.983-1.027
	c-0.007-0.31-0.001-0.621-0.001-0.958h-6.994c0,0.324,0.006,0.643-0.001,0.963c-0.013,0.621-0.383,1.018-0.947,1.023
	c-0.58,0.005-0.957-0.401-0.966-1.043C8.432,20.758,8.435,20.449,8.435,20.092"/>
</svg>
