<?xml version="1.0" encoding="UTF-8" standalone="no"?>
<!-- Created with Inkscape (http://www.inkscape.org/) -->

<svg
   xmlns:dc="http://purl.org/dc/elements/1.1/"
   xmlns:cc="http://creativecommons.org/ns#"
   xmlns:rdf="http://www.w3.org/1999/02/22-rdf-syntax-ns#"
   xmlns:svg="http://www.w3.org/2000/svg"
   xmlns="http://www.w3.org/2000/svg"
   xmlns:sodipodi="http://sodipodi.sourceforge.net/DTD/sodipodi-0.dtd"
   xmlns:inkscape="http://www.inkscape.org/namespaces/inkscape"
   width="100"
   height="100"
   id="svg4791"
   version="1.1"
   inkscape:version="0.48.4 r9939"
   sodipodi:docname="New document 19">
  <defs
     id="defs4793">
    <clipPath
       clipPathUnits="userSpaceOnUse"
       id="clipPath3137">
      <path
         inkscape:connector-curvature="0"
         d="m 0,2188 8196,0 L 8196,0 0,0 0,2188 z"
         id="path3139" />
    </clipPath>
  </defs>
  <sodipodi:namedview
     id="base"
     pagecolor="#ffffff"
     bordercolor="#666666"
     borderopacity="1.0"
     inkscape:pageopacity="0.0"
     inkscape:pageshadow="2"
     inkscape:zoom="2.8"
     inkscape:cx="144.95954"
     inkscape:cy="34.642223"
     inkscape:document-units="px"
     inkscape:current-layer="g3135"
     showgrid="false"
     inkscape:window-width="1366"
     inkscape:window-height="744"
     inkscape:window-x="0"
     inkscape:window-y="24"
     inkscape:window-maximized="1" />
  <metadata
     id="metadata4796">
    <rdf:RDF>
      <cc:Work
         rdf:about="">
        <dc:format>image/svg+xml</dc:format>
        <dc:type
           rdf:resource="http://purl.org/dc/dcmitype/StillImage" />
        <dc:title></dc:title>
      </cc:Work>
    </rdf:RDF>
  </metadata>
  <g
     inkscape:label="Layer 1"
     inkscape:groupmode="layer"
     id="layer1"
     transform="translate(0,-952.36218)">
    <g
       transform="matrix(1.25,0,0,-1.25,-144.18296,2628.7406)"
       id="g3135"
       clip-path="url(#clipPath3137)">
      <g
         id="g3169"
         transform="matrix(0.79408598,0,0,0.79408598,195.17237,1270.8021)">
        <path
           inkscape:connector-curvature="0"
           d="m 0,0 c 0,-6.627 -5.373,-12 -12,-12 l -75.903,0 c -6.627,0 -12,5.373 -12,12 l 0,75.903 c 0,6.627 5.373,12 12,12 l 75.903,0 c 6.627,0 12,-5.373 12,-12 L 0,0 z"
           style="fill:#293d9b;fill-opacity:1;fill-rule:evenodd;stroke:none"
           id="background" />
      </g>
      <g
         id="g3173"
         transform="matrix(0.79408598,0,0,0.79408598,176.81954,1282.4746)">
        <path
           inkscape:connector-curvature="0"
           d="M 0,0 C 3.041,-0.038 5.459,2.318 5.505,5.361 5.552,8.528 3.355,10.856 0.259,10.919 -2.945,10.984 -5.397,8.645 -5.412,5.507 -5.427,2.526 -2.981,0.037 0,0 m -54.012,0 c 2.98,-0.085 5.542,2.313 5.639,5.279 0.101,3.064 -2.171,5.524 -5.206,5.637 -3.252,0.12 -5.661,-2.126 -5.71,-5.324 -0.047,-3.074 2.247,-5.507 5.277,-5.592 m 27.23,63.848 c -5.274,0 -10.549,-0.032 -15.822,0.019 -1.608,0.015 -2.7,-0.511 -2.791,-2.198 -0.097,-1.794 1.018,-2.616 2.684,-2.62 10.547,-0.025 21.096,-0.024 31.644,-0.003 1.682,0.003 2.771,0.846 2.675,2.629 -0.089,1.687 -1.189,2.208 -2.794,2.192 -5.198,-0.051 -10.397,-0.019 -15.596,-0.019 m -0.069,-39.202 c 9.348,0 18.696,-0.009 28.044,0.004 3.587,0.005 4.65,1.014 4.205,4.436 -0.929,7.159 -1.96,14.307 -3.079,21.438 -0.475,3.024 -1.531,3.809 -4.592,3.813 -16.435,0.02 -32.87,0.02 -49.304,-0.002 -2.977,-0.003 -4.075,-0.886 -4.539,-3.891 -1.098,-7.135 -2.134,-14.282 -3.076,-21.44 -0.428,-3.248 0.684,-4.346 4.07,-4.353 9.424,-0.017 18.847,-0.005 28.271,-0.005 m -32.794,-37.266 -6.382,0 c -0.042,0.923 -0.11,1.722 -0.11,2.519 -0.007,12.06 -0.238,24.126 0.092,36.176 0.17,6.214 1.316,12.404 2.07,18.599 0.475,3.883 1.118,7.746 1.545,11.633 0.422,3.835 2.351,6.554 5.627,8.468 5.034,2.94 10.642,4.058 16.241,5.205 12.777,2.618 25.296,1.275 37.622,-2.594 1.853,-0.581 3.651,-1.403 5.385,-2.289 3.668,-1.875 5.765,-4.815 6.263,-9.024 1.078,-9.112 2.912,-18.174 3.379,-27.31 0.619,-12.103 0.228,-24.258 0.269,-36.39 0.005,-1.574 10e-4,-3.148 10e-4,-4.931 l -6.498,0 c 0,-2.125 0.021,-4.048 -0.004,-5.97 -0.049,-3.802 -2.22,-6.219 -5.627,-6.301 -3.509,-0.084 -5.853,2.343 -5.948,6.215 -0.046,1.878 -0.008,3.759 -0.008,5.8 l -42.329,0 c 0,-1.957 0.034,-3.891 -0.007,-5.822 -0.08,-3.764 -2.319,-6.16 -5.734,-6.192 -3.51,-0.034 -5.793,2.421 -5.843,6.314 -0.024,1.868 -0.004,3.737 -0.004,5.894"
           style="fill:#ffffff;fill-opacity:1;fill-rule:evenodd;stroke:none"
           id="path3175" />
        <text
           xml:space="preserve"
           style="font-size:32.38047409px;font-style:normal;font-variant:normal;font-weight:300;font-stretch:normal;line-height:125%;letter-spacing:0px;word-spacing:0px;fill:#ffffff;fill-opacity:1;stroke:none;font-family:Helvetica Neue LT Pro;-inkscape-font-specification:Helvetica Neue LT Pro Light"
           x="-28"
           y="-28.223335"
           id="busNumber"
           text-anchor="middle"
           sodipodi:linespacing="125%"
           transform="scale(1,-1)"><tspan
             sodipodi:role="line"
             id="tspan4848"
             x="-55.285122"
             y="-28.223335"></tspan></text>
      </g>
    </g>
  </g>
</svg>
