<?xml version="1.0" encoding="UTF-8" standalone="no"?>
<!-- Created with Inkscape (http://www.inkscape.org/) -->

<svg
   xmlns:dc="http://purl.org/dc/elements/1.1/"
   xmlns:cc="http://creativecommons.org/ns#"
   xmlns:rdf="http://www.w3.org/1999/02/22-rdf-syntax-ns#"
   xmlns:svg="http://www.w3.org/2000/svg"
   xmlns="http://www.w3.org/2000/svg"
   xmlns:sodipodi="http://sodipodi.sourceforge.net/DTD/sodipodi-0.dtd"
   xmlns:inkscape="http://www.inkscape.org/namespaces/inkscape"
   width="100"
   height="100"
   id="svg3369"
   version="1.1"
   inkscape:version="0.48.4 r9939"
   sodipodi:docname="pothole.svg">
  <defs
     id="defs3371">
    <clipPath
       clipPathUnits="userSpaceOnUse"
       id="clipPath3189">
      <path
         inkscape:connector-curvature="0"
         d="m 0,2188 8196,0 L 8196,0 0,0 0,2188 z"
         id="path3191" />
    </clipPath>
  </defs>
  <sodipodi:namedview
     id="base"
     pagecolor="#ffffff"
     bordercolor="#666666"
     borderopacity="1.0"
     inkscape:pageopacity="0.0"
     inkscape:pageshadow="2"
     inkscape:zoom="1.979899"
     inkscape:cx="217.63261"
     inkscape:cy="-14.154528"
     inkscape:document-units="px"
     inkscape:current-layer="g3201"
     showgrid="false"
     inkscape:window-width="1366"
     inkscape:window-height="744"
     inkscape:window-x="0"
     inkscape:window-y="24"
     inkscape:window-maximized="1" />
  <metadata
     id="metadata3374">
    <rdf:RDF>
      <cc:Work
         rdf:about="">
        <dc:format>image/svg+xml</dc:format>
        <dc:type
           rdf:resource="http://purl.org/dc/dcmitype/StillImage" />
        <dc:title></dc:title>
      </cc:Work>
    </rdf:RDF>
  </metadata>
  <g
     inkscape:label="Layer 1"
     inkscape:groupmode="layer"
     id="layer1"
     transform="translate(0,-952.36218)">
    <g
       id="g4230"
       transform="matrix(0.87834735,0,0,-0.87834735,44.766914,952.96333)">
      <g
         transform="matrix(1.4231272,0,0,1.4231272,-601.29187,-1691.0436)"
         id="g3185">
        <g
           id="g3187"
           clip-path="url(#clipPath3189)">
          <g
             id="g3201"
             transform="matrix(0.70530627,0,0,0.70530627,422.38514,1188.4963)"
             style="fill:#3f8643;fill-opacity:1">
            <path
               inkscape:connector-curvature="0"
               d="m 0,0 12,0 37.901,0 10.245,0 c 2.334,0 2.894,-2.338 1.244,-5.196 l -4.84,-8.381 c -1.65,-2.858 -4.35,-7.535 -6,-10.393 l -12.355,-21.4 c -1.65,-2.858 -4.35,-7.535 -6,-10.393 L 9,-95.938 c -1.65,-2.857 -4.35,-2.857 -6,0 l -23.195,40.175 c -1.65,2.858 -4.35,7.535 -6,10.393 L -49.39,-5.196 C -51.04,-2.338 -49.689,0 -46.39,0 L 0,0 z"
               style="fill:#3f8643;fill-opacity:1;fill-rule:nonzero;stroke:none"
               id="background" />
          </g>
        </g>
      </g>
      <g
         id="g3221"
         transform="matrix(1.0037405,0,0,1.0037405,7.49443,-33.469774)">
        <path
           inkscape:connector-curvature="0"
           d="m 0,0 23.417,0 c 0.036,-0.109 0.072,-0.219 0.107,-0.33 -15.668,-9.791 -31.336,-19.583 -47.003,-29.376 -0.089,0.105 -0.181,0.215 -0.271,0.319 7.702,9.636 15.405,19.273 23.353,29.215 l -23.277,0 c -0.056,0.162 -0.113,0.324 -0.17,0.49 15.698,9.812 31.396,19.625 47.094,29.437 0.094,-0.106 0.187,-0.212 0.282,-0.319 C 15.79,19.754 8.05,10.07 0,0"
           style="fill:#f4f4f4;fill-opacity:1;fill-rule:evenodd;stroke:none"
           id="path3223" />
      </g>
    </g>
  </g>
</svg>
