<?xml version="1.0" encoding="utf-8"?>
<!-- Generator: Adobe Illustrator 16.0.4, SVG Export Plug-In . SVG Version: 6.00 Build 0)  -->
<!DOCTYPE svg PUBLIC "-//W3C//DTD SVG 1.1//EN" "http://www.w3.org/Graphics/SVG/1.1/DTD/svg11.dtd">
<svg version="1.1" id="Layer_1" xmlns="http://www.w3.org/2000/svg" xmlns:xlink="http://www.w3.org/1999/xlink" x="0px" y="0px"
	 width="100" height="100" viewBox="0 0 100 100" enable-background="new 0 0 100 100" xml:space="preserve">
<circle id="background" fill="#F8CB90" cx="50" cy="50" r="48.306"/>
<g id="eTXGC1.tif">
	<g>
		<path fill="#FFFFFF" d="M86.765,83.63c-2.379-1.694-5.574-3.01-5.493-4.073c0.435-5.644-4.447-6.384-7.379-8.64
			c-7.353-5.659-15.107-10.642-19.984-19.09c-2.224-3.853-6.601-6.397-9.502-9.944c-2.525-3.085-4.91-6.53-6.322-10.213
			c-1.397-3.648-1.446-7.804-2.187-11.718c-0.811-4.283-3.628-6.881-7.772-7.27c-1.955-0.184-4.694,0.728-5.947,2.144
			c-1.604,1.811-2.065,4.632-3.046,7.084c6.329,0.679,7.074,1.692,5.119,7.627c-1.398,4.248-3.325,8.321-4.755,12.559
			c-3.592,10.651-1.38,18.664,7.295,25.82c3.156,2.604,6.953,4.442,10.051,7.104c1.258,1.081,2.323,3.723,1.859,5.114
			c-0.529,1.587-2.74,2.796-4.457,3.737c-1.065,0.584-2.57,0.364-3.878,0.506c0.06,0.643,0.12,1.285,0.18,1.928
			c5.025-0.395,10.051-0.788,14.461-1.135c-1.311-1.548-3.638-3.093-3.515-4.408c0.239-2.545,1.874-4.061,5.259-4.649
			c9.486-1.652,17.178,2.666,25.246,6.053C76.479,84.047,80.943,86.079,86.765,83.63z"/>
	</g>
</g>
</svg>
