<?xml version="1.0" encoding="utf-8"?>
<!-- Generator: Adobe Illustrator 16.0.4, SVG Export Plug-In . SVG Version: 6.00 Build 0)  -->
<!DOCTYPE svg PUBLIC "-//W3C//DTD SVG 1.1//EN" "http://www.w3.org/Graphics/SVG/1.1/DTD/svg11.dtd">
<svg version="1.1" id="Layer_1" xmlns="http://www.w3.org/2000/svg" xmlns:xlink="http://www.w3.org/1999/xlink" x="0" y="0"
	 width="100" height="100" viewBox="0 0 100 100" enable-background="new 0 0 100 100" xml:space="preserve">
<circle id="background" fill="#F8CB90" cx="50.693" cy="50" r="48.306"/>
<path fill-rule="evenodd" clip-rule="evenodd" fill="#FFFFFF" d="M6,39.443c4.099-1.564,7.982-2.314,11.332-4.479
	c6.682-4.32,13.024-9.531,19.606-14.131c2.257-1.577,4.765-2.649,7.247-3.524c1.43-0.504,3.041-0.059,4.562-0.204
	c6.039-0.581,11.229,1.14,16.143,6.525c6.999,7.669,15.544,11.796,24.419,14.543c0.738,0.229,1.474,0.48,2.197,0.773
	c0.229,0.093,0.414,0.355,0.978,0.861c-3.966,10.187-8.881,18.832-18.356,20.603c-17.237,3.221-34.555,3.771-51.669-0.498
	C14.343,57.889,9.56,49.402,6,39.443z M40.494,32.334c-0.357,8.501-1.262,15.833,4.548,20.423c3.012,2.377,6.016,2.242,8.929-0.334
	c5.365-4.742,4.763-11.774,4.229-20.089C52.362,32.334,46.573,32.334,40.494,32.334z"/>
<path fill-rule="evenodd" clip-rule="evenodd" fill="#FFFFFF" d="M17.273,62.386c22.048,8.368,43.168,7.917,64.643,0.239
	C64.132,91.541,40.351,91.83,17.273,62.386z"/>
</svg>
