<?xml version="1.0" encoding="utf-8"?>
<!-- Generator: Adobe Illustrator 16.0.0, SVG Export Plug-In . SVG Version: 6.00 Build 0)  -->
<!DOCTYPE svg PUBLIC "-//W3C//DTD SVG 1.1//EN" "http://www.w3.org/Graphics/SVG/1.1/DTD/svg11.dtd">
<svg version="1.1" id="Capa_1" xmlns="http://www.w3.org/2000/svg" xmlns:xlink="http://www.w3.org/1999/xlink" x="0px" y="0px"
	 width="27.691" height="100.394" viewBox="0 0 27.691 100.394" enable-background="new 0 0 27.691 100.394"
	 xml:space="preserve">
<g>
	<path fill="#F03B20" d="M13.844,0C6.198,0-0.001,6.198-0.001,13.845c0,1.494,0.244,2.929,0.682,4.274
		C1.66,21.58,13.846,51.787,13.846,51.787s11.14-27.703,12.954-33.096c0.565-1.511,0.893-3.14,0.893-4.848
		C27.69,6.199,21.491,0,13.844,0z M20.22,13.945c0,3.59-2.854,6.5-6.375,6.5c-3.521,0-6.375-2.91-6.375-6.5
		c0-3.59,2.854-6.5,6.375-6.5C17.366,7.445,20.22,10.355,20.22,13.945z"/>
</g>
</svg>
