<?xml version="1.0" encoding="UTF-8" standalone="no"?>
<!-- Created with Inkscape (http://www.inkscape.org/) -->

<svg
   xmlns:dc="http://purl.org/dc/elements/1.1/"
   xmlns:cc="http://creativecommons.org/ns#"
   xmlns:rdf="http://www.w3.org/1999/02/22-rdf-syntax-ns#"
   xmlns:svg="http://www.w3.org/2000/svg"
   xmlns="http://www.w3.org/2000/svg"
   xmlns:sodipodi="http://sodipodi.sourceforge.net/DTD/sodipodi-0.dtd"
   xmlns:inkscape="http://www.inkscape.org/namespaces/inkscape"
   width="100"
   height="100"
   id="svg3369"
   version="1.1"
   inkscape:version="0.48.4 r9939"
   sodipodi:docname="pothole.svg">
  <defs
     id="defs3371" />
  <sodipodi:namedview
     id="base"
     pagecolor="#ffffff"
     bordercolor="#666666"
     borderopacity="1.0"
     inkscape:pageopacity="0.0"
     inkscape:pageshadow="2"
     inkscape:zoom="5.6"
     inkscape:cx="86.412485"
     inkscape:cy="54.095018"
     inkscape:document-units="px"
     showgrid="false"
     inkscape:window-width="1366"
     inkscape:window-height="744"
     inkscape:window-x="0"
     inkscape:window-y="24"
     inkscape:window-maximized="1" />
  <metadata
     id="metadata3374">
    <rdf:RDF>
      <cc:Work
         rdf:about="">
        <dc:format>image/svg+xml</dc:format>
        <dc:type
           rdf:resource="http://purl.org/dc/dcmitype/StillImage" />
        <dc:title></dc:title>
      </cc:Work>
    </rdf:RDF>
  </metadata>
  <g
     inkscape:label="Layer 1"
     inkscape:groupmode="layer"
     id="layer1"
     transform="translate(0,-952.36218)">
    <g

       transform="matrix(0.87834735,0,0,-0.87834735,44.766914,952.96333)">
      <path
         id="background"
         inkscape:connector-curvature="0"
         d="m 0,0 12,0 37.901,0 10.245,0 c 2.334,0 2.894,-2.338 1.244,-5.196 l -4.84,-8.381 c -1.65,-2.858 -4.35,-7.535 -6,-10.393 l -12.355,-21.4 c -1.65,-2.858 -4.35,-7.535 -6,-10.393 L 9,-95.938 c -1.65,-2.857 -4.35,-2.857 -6,0 l -23.195,40.175 c -1.65,2.858 -4.35,7.535 -6,10.393 L -49.39,-5.196 c -1.65,2.858 -0.3,5.196 3,5.196 L 0,0 z"
         style="fill:#3f8643;fill-opacity:1;fill-rule:nonzero;stroke:none"
       />
    </g>
    <g
       id="g3397"
       transform="matrix(0.87834735,0,0,-0.87834735,25.283694,983.48338)">
      <path
         inkscape:connector-curvature="0"
         d="m 0,0 c 0,-15.886 12.618,-28.762 28.182,-28.762 15.564,0 28.181,12.876 28.181,28.762 0,15.885 -12.617,28.762 -28.181,28.762 C 12.618,28.762 0,15.885 0,0"
         style="fill:#f4f4f4;fill-opacity:1;fill-rule:nonzero;stroke:none"
         id="path3399" />
    </g>
  </g>
</svg>
