<?xml version="1.0" encoding="utf-8"?>
<!-- Generator: Adobe Illustrator 16.0.4, SVG Export Plug-In . SVG Version: 6.00 Build 0)  -->
<!DOCTYPE svg PUBLIC "-//W3C//DTD SVG 1.1//EN" "http://www.w3.org/Graphics/SVG/1.1/DTD/svg11.dtd">
<svg version="1.1" id="Layer_1" xmlns="http://www.w3.org/2000/svg" xmlns:xlink="http://www.w3.org/1999/xlink" x="0px" y="0px"
	 width="100" height="100" viewBox="0 0 100 100" enable-background="new 0 0 100 100" xml:space="preserve">
<circle id="background" fill="#F19361" cx="50.1" cy="50.001" r="48.306"/>
<g id="_x39_vayNf.tif">
	<g>
		<path fill="#FFFFFF" d="M45.934,13.333c2.36,0,4.72,0,7.081,0c0.405,2.051,0.811,4.102,1.238,6.269
			c0.962,0.258,2.094,0.528,3.206,0.865c5.924,1.792,10.365,5.327,12.875,11.078c1.262,2.892,0.842,3.653-2.205,4.33
			c-2.562,0.569-5.119,1.164-7.637,1.737c-1.65-2.858-2.24-6.509-6.554-6.879c0,4.305,0,8.431,0,12.526
			c2.874,0.958,5.562,1.953,8.308,2.748c5.555,1.609,8.641,5.537,10.42,10.762c0.33,0.965,0.631,1.939,0.945,2.909
			c0,1.717,0,3.433,0,5.149c-2.076,8.505-7.252,14.118-15.903,15.714c-3.333,0.616-4.108,1.841-3.938,4.909
			c0.228,4.098-0.223,4.366-4.33,4.353c-3.799-0.012-4.109-0.335-4.125-4.313c-0.002-0.644-0.062-1.293,0.01-1.928
			c0.216-1.905-0.603-2.402-2.495-2.75c-8.457-1.552-14.565-6.138-17.69-14.4c-0.798-2.111-0.493-3.201,1.806-3.68
			c2.987-0.622,5.944-1.393,8.988-2.116c1.573,4.874,3.577,9.06,9.394,9.858c0-4.425-0.058-8.601,0.028-12.774
			c0.035-1.699-0.536-2.312-2.256-2.74c-2.648-0.659-5.21-1.77-7.706-2.915c-5.574-2.558-8.365-7.186-8.682-13.13
			c-0.338-6.341,1.569-11.978,7.42-15.246c3.441-1.922,7.312-3.077,10.932-4.553C45.338,17.285,45.636,15.31,45.934,13.333z
			 M54.09,57.186c0,4.554,0,8.94,0,13.365c4.58-0.834,7.439-3.854,7.208-7.36C61.084,59.929,58.35,57.59,54.09,57.186z
			 M45.259,30.246c-4.572,1.146-6.593,3.188-6.434,6.236c0.152,2.911,2.271,4.737,6.434,5.499
			C45.259,38.13,45.259,34.293,45.259,30.246z"/>
	</g>
</g>
</svg>
