<?xml version="1.0" encoding="utf-8"?>
<!-- Generator: Adobe Illustrator 16.0.4, SVG Export Plug-In . SVG Version: 6.00 Build 0)  -->
<!DOCTYPE svg PUBLIC "-//W3C//DTD SVG 1.1//EN" "http://www.w3.org/Graphics/SVG/1.1/DTD/svg11.dtd">
<svg version="1.1" id="Layer_1" xmlns="http://www.w3.org/2000/svg" xmlns:xlink="http://www.w3.org/1999/xlink" x="0px" y="0px"
	 width="100" height="100" viewBox="0 0 100 100" enable-background="new 0 0 100 100" xml:space="preserve">
<g>
	<g id="jAQfok_5_">
		<g>
			<g>
				<path id="background" fill-rule="evenodd" clip-rule="evenodd" stroke="#FFFFFF" stroke-width="3" stroke-miterlimit="10" d="M98.25,85.877
					c0,6.412-5.196,11.609-11.609,11.609H13.207c-6.412,0-11.609-5.197-11.609-11.609V12.443c0-6.412,5.198-11.609,11.609-11.609
					h73.434c6.413,0,11.609,5.197,11.609,11.609V85.877z"/>
			</g>
		</g>
	</g>
	<g id="dpJKCZ_1_">
		<g>
			<path fill="#FFFFFF" d="M73.945,5.658c-1.819,1.571-3.632,3.1-5.404,4.676c-5.301,4.715-10.622,9.408-15.861,14.191
				c-2.939,2.684-4.371,6.085-3.991,10.107c0.177,1.868,0.522,3.723,0.825,5.577c0.304,1.858-0.183,3.306-1.775,4.476
				c-5.737,4.217-11.425,8.5-17.121,12.773c-6.197,4.648-11.942,9.785-16.782,15.863c-1.52,1.909-2.899,3.931-3.547,6.342
				c-0.394,1.466-0.33,2.873,0.589,4.157c1.851,2.582,3.966,3.285,6.989,2.216c3.773-1.335,6.816-3.835,9.827-6.352
				c6.958-5.812,12.533-12.895,18.181-19.909c2.562-3.185,5.198-6.308,7.76-9.491c1.1-1.366,2.478-1.629,4.076-1.287
				c1.354,0.289,2.707,0.59,4.061,0.886c4.352,0.951,8.321,0.195,11.538-2.991c5.768-5.711,11.428-11.531,17.144-17.293
				c1.064-1.073,2.185-2.092,3.364-3.217c-1.351-1.74-2.554-3.289-3.833-4.938c-0.382,0.364-0.662,0.632-0.943,0.899
				c-5.064,4.828-10.131,9.652-15.187,14.49c-0.681,0.65-1.413,1.08-2.385,0.902c-1.001-0.185-1.653-0.811-1.958-1.747
				c-0.344-1.055,0.049-1.916,0.833-2.661c5.166-4.914,10.321-9.836,15.48-14.755c0.278-0.266,0.558-0.532,0.859-0.819
				c-1.573-1.65-3.062-3.213-4.615-4.841c-1.864,1.778-3.651,3.481-5.438,5.187c-3.606,3.438-7.22,6.871-10.814,10.322
				c-0.643,0.617-1.348,0.944-2.23,0.763c-0.99-0.203-1.645-0.825-1.938-1.772c-0.302-0.979,0.018-1.785,0.761-2.492
				c5.097-4.841,10.18-9.696,15.268-14.548c0.274-0.262,0.55-0.523,0.9-0.858c-1.369-1.186-2.608-2.268-3.858-3.336
				C74.497,5.987,74.232,5.849,73.945,5.658z"/>
			<path fill-rule="evenodd" clip-rule="evenodd" fill="#FFFFFF" d="M73.945,5.658c0.287,0.19,0.552,0.329,0.773,0.52
				c1.25,1.068,2.489,2.15,3.858,3.336c-0.351,0.335-0.626,0.597-0.9,0.858c-5.088,4.852-10.171,9.707-15.268,14.548
				c-0.743,0.707-1.062,1.514-0.761,2.492c0.293,0.947,0.947,1.569,1.938,1.772c0.883,0.182,1.588-0.146,2.23-0.763
				c3.595-3.451,7.208-6.884,10.814-10.322c1.787-1.705,3.574-3.408,5.438-5.187c1.553,1.628,3.042,3.19,4.615,4.841
				c-0.302,0.287-0.581,0.554-0.859,0.819c-5.159,4.919-10.314,9.841-15.48,14.755c-0.784,0.745-1.177,1.606-0.833,2.661
				c0.305,0.937,0.957,1.562,1.958,1.747c0.972,0.178,1.704-0.252,2.385-0.902c5.056-4.838,10.122-9.662,15.187-14.49
				c0.281-0.268,0.562-0.535,0.943-0.899c1.279,1.649,2.482,3.198,3.833,4.938c-1.18,1.125-2.3,2.144-3.364,3.217
				c-5.716,5.762-11.376,11.582-17.144,17.293c-3.217,3.187-7.187,3.942-11.538,2.991c-1.354-0.296-2.706-0.597-4.061-0.886
				c-1.599-0.342-2.977-0.079-4.076,1.287c-2.562,3.184-5.197,6.307-7.76,9.491c-5.648,7.015-11.224,14.097-18.181,19.909
				c-3.011,2.517-6.054,5.017-9.827,6.352c-3.023,1.069-5.138,0.366-6.989-2.216c-0.919-1.284-0.983-2.691-0.589-4.157
				c0.648-2.411,2.028-4.433,3.547-6.342c4.839-6.078,10.584-11.215,16.782-15.863c5.696-4.273,11.384-8.557,17.121-12.773
				c1.593-1.17,2.08-2.617,1.775-4.476c-0.303-1.854-0.648-3.709-0.825-5.577c-0.38-4.022,1.052-7.424,3.991-10.107
				c5.239-4.783,10.561-9.477,15.861-14.191C70.313,8.758,72.126,7.229,73.945,5.658z"/>
		</g>
	</g>
</g>
</svg>
