<?xml version="1.0" encoding="utf-8"?>
<!-- Generator: Adobe Illustrator 16.0.4, SVG Export Plug-In . SVG Version: 6.00 Build 0)  -->
<!DOCTYPE svg PUBLIC "-//W3C//DTD SVG 1.1//EN" "http://www.w3.org/Graphics/SVG/1.1/DTD/svg11.dtd">
<svg version="1.1" id="Layer_1" xmlns="http://www.w3.org/2000/svg" xmlns:xlink="http://www.w3.org/1999/xlink" x="0px" y="0px"
	 width="100" height="100" viewBox="0 0 100 100" enable-background="new 0 0 100 100" xml:space="preserve">
<g id="jAQfok_6_">
	<g>
		<path id="background" fill-rule="evenodd" clip-rule="evenodd" fill="#3DC3E3" d="M100,88c0,6.627-5.373,12-12,12H12.097c-6.627,0-12-5.373-12-12
			V12.098c0-6.628,5.373-12,12-12H88c6.627,0,12,5.372,12,12V88z"/>
	</g>
</g>
<g>
	<path fill="#FCFCFC" d="M86.877,19.272c-0.138,0.063-0.202,0.088-0.262,0.122c-0.328,0.182-0.652,0.372-0.983,0.549
		c-2.398,1.287-4.918,2.266-7.556,2.94c-0.521,0.134-1.051,0.244-1.575,0.366c-0.149,0.035-0.28,0.024-0.374-0.116
		c-0.02-0.029-0.048-0.052-0.072-0.077c-1.089-1.117-2.311-2.061-3.663-2.836c-1.812-1.039-3.753-1.712-5.815-2.022
		c-1.388-0.208-2.781-0.237-4.18-0.099c-1.409,0.139-2.777,0.451-4.104,0.94c-2.372,0.876-4.442,2.221-6.204,4.034
		c-2.064,2.125-3.471,4.623-4.217,7.49c-0.317,1.221-0.479,2.463-0.523,3.722c-0.024,0.682,0.014,1.362,0.069,2.041
		c0.055,0.667,0.164,1.327,0.307,1.981c0.014,0.063,0.001,0.131,0.001,0.218c-0.371-0.02-0.72-0.033-1.069-0.059
		c-0.363-0.026-0.725-0.062-1.087-0.097c-0.351-0.034-0.701-0.071-1.05-0.112c-0.361-0.043-0.722-0.088-1.083-0.139
		c-0.348-0.049-0.695-0.104-1.042-0.163c-0.358-0.06-0.717-0.123-1.074-0.19c-0.346-0.065-0.691-0.134-1.035-0.208
		c-0.356-0.076-0.71-0.157-1.064-0.241c-0.342-0.081-0.684-0.165-1.024-0.253c-0.352-0.091-0.703-0.187-1.053-0.286
		c-0.338-0.096-0.675-0.197-1.011-0.301c-0.347-0.107-0.694-0.218-1.038-0.333c-0.334-0.112-0.666-0.229-0.997-0.349
		c-0.331-0.12-0.66-0.242-0.988-0.369c-0.339-0.131-0.677-0.267-1.013-0.405c-0.325-0.135-0.648-0.273-0.971-0.415
		c-0.333-0.146-0.666-0.294-0.995-0.447c-0.319-0.149-0.636-0.303-0.951-0.459c-0.326-0.162-0.65-0.326-0.972-0.495
		c-0.312-0.163-0.623-0.329-0.931-0.499c-0.318-0.176-0.635-0.355-0.949-0.538c-0.304-0.177-0.606-0.357-0.907-0.541
		c-0.31-0.189-0.619-0.383-0.925-0.58c-0.296-0.19-0.589-0.385-0.881-0.582s-0.581-0.398-0.868-0.602
		c-0.297-0.21-0.592-0.423-0.884-0.641c-0.283-0.21-0.562-0.424-0.84-0.641c-0.286-0.224-0.572-0.45-0.854-0.68
		c-0.273-0.223-0.542-0.449-0.81-0.678c-0.277-0.237-0.551-0.476-0.822-0.718c-0.263-0.234-0.523-0.472-0.781-0.712
		c-0.266-0.248-0.529-0.5-0.789-0.754c-0.252-0.246-0.501-0.496-0.747-0.748c-0.254-0.26-0.506-0.522-0.755-0.788
		c-0.241-0.257-0.478-0.518-0.711-0.78c-0.243-0.272-0.477-0.55-0.72-0.821c-0.234-0.259-0.43-0.553-0.709-0.812
		c-0.089,0.153-0.167,0.282-0.239,0.414c-0.079,0.144-0.155,0.289-0.23,0.436c-0.069,0.136-0.137,0.272-0.202,0.411
		c-0.07,0.148-0.138,0.298-0.203,0.449c-0.062,0.14-0.12,0.28-0.177,0.422c-0.062,0.152-0.122,0.305-0.179,0.458
		c-0.053,0.143-0.102,0.288-0.15,0.432c-0.048,0.145-0.095,0.29-0.14,0.436c-0.048,0.157-0.095,0.314-0.14,0.472
		c-0.042,0.147-0.083,0.294-0.12,0.442c-0.039,0.16-0.072,0.32-0.107,0.481c-0.032,0.149-0.065,0.298-0.094,0.447
		c-0.031,0.162-0.059,0.323-0.084,0.485c-0.023,0.151-0.045,0.302-0.064,0.453c-0.021,0.163-0.042,0.326-0.057,0.49
		c-0.015,0.152-0.023,0.304-0.033,0.457s-0.019,0.305-0.025,0.457c-0.008,0.164-0.015,0.329-0.019,0.493
		c-0.003,0.152-0.003,0.306-0.001,0.458c0.003,0.164,0.009,0.329,0.016,0.493c0.006,0.152,0.016,0.305,0.026,0.457
		c0.01,0.164,0.018,0.328,0.032,0.492c0.014,0.151,0.033,0.303,0.053,0.455s0.041,0.302,0.064,0.453
		c0.025,0.162,0.052,0.324,0.081,0.486c0.027,0.15,0.055,0.3,0.087,0.449c0.035,0.16,0.073,0.32,0.112,0.479
		c0.037,0.148,0.076,0.295,0.117,0.442c0.043,0.159,0.087,0.317,0.135,0.474c0.043,0.146,0.09,0.291,0.138,0.436
		s0.1,0.288,0.152,0.432c0.057,0.154,0.112,0.309,0.173,0.461c0.056,0.142,0.115,0.282,0.177,0.422
		c0.065,0.15,0.133,0.3,0.202,0.449c0.064,0.139,0.129,0.276,0.198,0.412c0.073,0.147,0.151,0.292,0.229,0.437
		c0.073,0.134,0.148,0.267,0.224,0.399c0.076,0.132,0.152,0.265,0.232,0.395c0.085,0.14,0.172,0.279,0.262,0.417
		c0.083,0.127,0.168,0.254,0.256,0.379c0.093,0.135,0.188,0.269,0.286,0.401c0.09,0.123,0.183,0.245,0.277,0.364
		c0.101,0.129,0.205,0.258,0.309,0.384c0.098,0.118,0.196,0.234,0.297,0.349c0.108,0.124,0.218,0.245,0.33,0.366
		c0.104,0.112,0.208,0.224,0.314,0.333s0.215,0.216,0.325,0.322c0.119,0.113,0.239,0.226,0.36,0.337
		c0.113,0.103,0.227,0.204,0.342,0.304c0.125,0.107,0.251,0.212,0.379,0.316c0.118,0.096,0.238,0.19,0.359,0.283
		c0.131,0.1,0.263,0.198,0.395,0.296c0.118,0.087,0.246,0.164,0.368,0.291c-0.068,0.013-0.101,0.025-0.133,0.023
		c-0.55-0.032-1.099-0.076-1.646-0.158c-1.141-0.171-2.252-0.455-3.334-0.854c-0.728-0.269-1.432-0.589-2.116-0.953
		c-0.06-0.032-0.117-0.085-0.191-0.032c-0.1,2.395,0.519,5.804,2.433,8.867c2.516,4.028,6.122,6.551,10.75,7.646
		c-0.09,0.125-0.22,0.116-0.327,0.142c-1.157,0.273-2.331,0.424-3.52,0.449c-1.094,0.023-2.181-0.065-3.258-0.26
		c-0.063-0.011-0.132,0.005-0.213,0.008c0.019,0.079,0.025,0.138,0.046,0.191c0.204,0.523,0.39,1.057,0.622,1.568
		c1.006,2.227,2.44,4.139,4.286,5.738c1.789,1.551,3.818,2.674,6.084,3.365c0.967,0.294,1.951,0.51,2.959,0.604
		c0.432,0.042,0.865,0.071,1.298,0.108c0.052,0.005,0.119-0.013,0.157,0.087c-0.309,0.254-0.638,0.493-0.971,0.729
		c-0.345,0.244-0.692,0.484-1.044,0.719c-0.342,0.228-0.687,0.449-1.037,0.664c-0.35,0.215-0.704,0.424-1.062,0.625
		s-0.72,0.396-1.085,0.584c-0.375,0.192-0.754,0.381-1.136,0.561c-0.372,0.175-0.748,0.34-1.125,0.501
		c-0.378,0.161-0.758,0.317-1.142,0.464c-0.394,0.149-0.791,0.293-1.191,0.428c-0.389,0.132-0.78,0.256-1.174,0.372
		c-0.393,0.118-0.788,0.229-1.186,0.332c-0.397,0.104-0.796,0.199-1.197,0.286c-0.413,0.09-0.828,0.17-1.243,0.244
		c-0.404,0.072-0.81,0.139-1.216,0.195c-0.406,0.058-0.814,0.106-1.222,0.15c-0.42,0.045-0.841,0.086-1.262,0.117
		c-0.41,0.03-0.821,0.053-1.231,0.066c-0.411,0.013-0.822,0.016-1.233,0.014c-0.411-0.002-0.821-0.012-1.232-0.028
		c-0.422-0.017-0.844-0.048-1.266-0.073c-0.403-0.023-0.803-0.104-1.208-0.1c0,0.037-0.005,0.055,0,0.059
		c0.064,0.05,0.127,0.103,0.196,0.146c1.312,0.823,2.661,1.585,4.047,2.279c2.608,1.306,5.313,2.362,8.116,3.171
		c1.523,0.439,3.064,0.801,4.622,1.084c1.247,0.226,2.502,0.4,3.764,0.521c1.063,0.102,2.128,0.18,3.196,0.211
		c2.327,0.066,4.648-0.006,6.963-0.244c1.284-0.132,2.562-0.312,3.833-0.543c1.975-0.36,3.921-0.838,5.835-1.445
		c3.21-1.021,6.271-2.377,9.174-4.086c4.142-2.438,7.793-5.471,10.979-9.066c2.984-3.368,5.438-7.09,7.398-11.138
		c1.173-2.423,2.144-4.925,2.915-7.503c0.497-1.664,0.908-3.351,1.225-5.059c0.218-1.176,0.391-2.36,0.521-3.55
		c0.12-1.098,0.217-2.197,0.241-3.299c0.027-1.174,0.002-2.348-0.001-3.522c-0.001-0.081,0-0.162,0-0.24
		c0.078-0.061,0.141-0.112,0.206-0.16c1.997-1.463,3.805-3.132,5.437-4.992c0.899-1.025,1.73-2.102,2.499-3.229
		c0.041-0.06,0.119-0.113,0.072-0.24c-2.977,1.3-6.07,2.158-9.297,2.56c0.021-0.127,0.125-0.146,0.197-0.193
		c1.594-1.025,2.983-2.275,4.16-3.762c1.152-1.458,2.035-3.066,2.655-4.817C86.795,19.575,86.821,19.463,86.877,19.272z"/>
</g>
</svg>
