<?xml version="1.0" encoding="utf-8"?>
<!-- Generator: Adobe Illustrator 16.0.4, SVG Export Plug-In . SVG Version: 6.00 Build 0)  -->
<!DOCTYPE svg PUBLIC "-//W3C//DTD SVG 1.1//EN" "http://www.w3.org/Graphics/SVG/1.1/DTD/svg11.dtd">
<svg version="1.1" id="Layer_1" xmlns="http://www.w3.org/2000/svg" xmlns:xlink="http://www.w3.org/1999/xlink" x="0px" y="0px"
	 width="100" height="100" viewBox="0 0 100 100" enable-background="new 0 0 100 100" xml:space="preserve">
<circle id="background" fill="#F8CB90" cx="50" cy="50" r="48.306"/>
<g id="dHHGLj.tif">
	<g>
		<path fill-rule="evenodd" clip-rule="evenodd" fill="#FFFFFF" d="M42.013,36.554c5.248-1.48,10.184-1.583,14.979-0.004
			c0-1.764-0.28-3.512,0.053-5.132c1.07-5.194,5.8-8.583,11.955-8.828c6.556-0.259,12.75,3.787,15.647,9.704
			c4.209,8.59-2.959,17.418-11.077,17.622c-0.628,0.014-1.26,0.002-2.124,0.002c2.972,10.115,1.207,19.052-6.317,26.472
			c-4.654,4.591-10.411,6.543-16.883,5.985c-8.155-0.704-14.511-4.538-18.749-11.619c-4.239-7.081-4.353-14.481-1.347-21.857
			c-2.367-0.45-4.694-0.509-6.698-1.347c-6.04-2.529-8.413-8.834-5.905-14.944c2.886-7.03,10.627-11.608,17.756-10.399
			c3.537,0.6,6.535,2.126,8.391,5.423c1.308,2.327,1.019,4.778,0.726,7.243C42.367,35.316,42.213,35.747,42.013,36.554z"/>
	</g>
</g>
</svg>
