<?xml version="1.0" encoding="utf-8"?>
<!-- Generator: Adobe Illustrator 16.0.4, SVG Export Plug-In . SVG Version: 6.00 Build 0)  -->
<!DOCTYPE svg PUBLIC "-//W3C//DTD SVG 1.1//EN" "http://www.w3.org/Graphics/SVG/1.1/DTD/svg11.dtd">
<svg version="1.1" id="Layer_1" xmlns="http://www.w3.org/2000/svg" xmlns:xlink="http://www.w3.org/1999/xlink" x="0" y="0"
	 width="100" height="100" viewBox="0 0 100 100" enable-background="new 0 0 100 100" xml:space="preserve">
<circle id="background" fill="#F8CB90" cx="50" cy="50" r="48.306"/>
<g id="tX4mla_1_">
	<g>
		<path fill="#FFFFFF" d="M50.827,28.766c-0.394,0.306-0.668,0.476-0.891,0.699c-7.833,7.852-15.662,15.707-23.489,23.563
			c-1.387,1.394-1.638,2.688-0.895,4.49c1.084,2.633,2.154,5.271,3.264,7.893c0.233,0.55,0.157,0.889-0.27,1.312
			c-3.4,3.366-6.781,6.751-10.144,10.155c-0.335,0.34-0.618,0.812-0.736,1.272c-0.566,2.204-1.109,4.419-1.564,6.648
			c-0.112,0.548,0.131,1.169,0.211,1.756c0.497-0.247,1.101-0.387,1.475-0.756c4.996-4.953,9.968-9.93,14.918-14.927
			c0.509-0.515,0.882-0.581,1.539-0.278c2.527,1.169,5.079,2.282,7.64,3.377c2.051,0.875,3.633,0.657,5.247-0.983
			c6.313-6.414,12.704-12.751,19.062-19.119c1.584-1.586,3.157-3.183,4.793-4.835c0.354,0.334,0.634,0.582,0.898,0.846
			c1.795,1.789,3.551,3.619,5.391,5.361c1.84,1.743,4.73,0.838,5.285-1.605c0.3-1.319-0.276-2.33-1.177-3.229
			c-2.978-2.981-5.938-5.979-8.919-8.957c-5.33-5.331-10.673-10.651-16.011-15.976c-2.444-2.439-4.872-4.896-7.344-7.307
			c-1.789-1.746-4.685-1.005-5.324,1.344c-0.347,1.274,0.059,2.354,0.999,3.273C46.753,24.707,48.698,26.653,50.827,28.766z
			 M83.804,31.567c0.798,0.848,1.514,1.651,2.275,2.412c1.472,1.469,3.415,1.546,4.718,0.217c1.327-1.355,1.245-3.246-0.238-4.732
			C83.817,22.72,77.069,15.98,70.319,9.243c-1.431-1.428-3.452-1.502-4.733-0.195c-1.275,1.301-1.193,3.25,0.226,4.66
			c0.755,0.75,1.552,1.458,2.368,2.223c-2.736,2.736-5.31,5.308-7.842,7.839c1.127,1.102,2.222,2.174,3.382,3.31
			c2.511-2.506,5.085-5.075,7.58-7.566c2.972,2.97,5.939,5.936,9.078,9.071c-2.551,2.504-5.158,5.065-7.688,7.551
			c1.075,1.125,2.121,2.217,3.201,3.346C78.499,36.872,81.073,34.297,83.804,31.567z"/>
		<path fill-rule="evenodd" clip-rule="evenodd" fill="#FFFFFF" d="M50.827,28.766c-2.129-2.113-4.074-4.059-6.04-5.983
			c-0.94-0.919-1.346-1.999-0.999-3.273c0.639-2.349,3.535-3.09,5.324-1.344c2.472,2.412,4.9,4.868,7.344,7.307
			c5.338,5.325,10.681,10.645,16.011,15.976c2.981,2.979,5.941,5.976,8.919,8.957c0.9,0.899,1.477,1.91,1.177,3.229
			c-0.555,2.443-3.445,3.349-5.285,1.605c-1.84-1.742-3.596-3.572-5.391-5.361c-0.265-0.264-0.544-0.512-0.898-0.846
			c-1.636,1.652-3.209,3.249-4.793,4.835c-6.358,6.368-12.749,12.705-19.062,19.119c-1.614,1.641-3.196,1.858-5.247,0.983
			c-2.561-1.095-5.113-2.208-7.64-3.377c-0.657-0.303-1.03-0.236-1.539,0.278c-4.95,4.997-9.923,9.974-14.918,14.927
			c-0.374,0.369-0.978,0.509-1.475,0.756c-0.08-0.587-0.323-1.208-0.211-1.756c0.456-2.229,0.998-4.444,1.564-6.648
			c0.118-0.46,0.401-0.933,0.736-1.272c3.363-3.404,6.744-6.789,10.144-10.155c0.427-0.423,0.503-0.762,0.27-1.312
			c-1.11-2.621-2.18-5.26-3.264-7.893c-0.743-1.803-0.492-3.097,0.895-4.49c7.827-7.856,15.656-15.712,23.489-23.563
			C50.159,29.242,50.434,29.071,50.827,28.766z M39.948,63.525c1.675,1.659,3.31,3.28,4.872,4.827
			c7.571-7.525,15.179-15.088,22.732-22.597c-1.626-1.633-3.247-3.264-4.967-4.99c-2.032,2.052-4.095,4.133-6.274,6.333
			c-2.129-2.18-4.18-4.277-6.153-6.294c-1.109,1.11-2.149,2.154-3.253,3.261c2.025,1.995,4.119,4.056,6.143,6.05
			c-1.672,1.674-3.275,3.276-4.972,4.974c-2.005-2.055-4.057-4.156-6.046-6.195c-1.13,1.126-2.174,2.167-3.342,3.332
			c2.055,2.029,4.157,4.107,6.401,6.323C43.333,60.249,41.631,61.896,39.948,63.525z"/>
		<path fill-rule="evenodd" clip-rule="evenodd" fill="#FFFFFF" d="M83.804,31.567c-2.73,2.73-5.305,5.305-7.913,7.914
			c-1.08-1.128-2.126-2.221-3.201-3.346c2.53-2.486,5.138-5.047,7.688-7.551c-3.139-3.136-6.106-6.102-9.078-9.071
			c-2.495,2.491-5.069,5.06-7.58,7.566c-1.16-1.135-2.255-2.208-3.382-3.31c2.532-2.531,5.105-5.103,7.842-7.839
			c-0.816-0.764-1.613-1.472-2.368-2.223c-1.419-1.411-1.501-3.359-0.226-4.66c1.281-1.307,3.303-1.233,4.733,0.195
			c6.75,6.738,13.498,13.477,20.239,20.221c1.483,1.486,1.565,3.377,0.238,4.732c-1.303,1.329-3.246,1.252-4.718-0.217
			C85.317,33.219,84.602,32.415,83.804,31.567z"/>
	</g>
</g>
</svg>
